# xmcd
# 
# Track frame offsets:
#     150
#     26638
#     76685
#     89805
#     109483
#     121180
# 
# Disc length: 2237
# 
# Revision: 19
# Processed by: cddbd v1.5.2PL0 Copyright (c) Steve Scherf et al.
# Submitted via: fre:ac v1.0.17
# 
DISCID=4608bb06
DTITLE=Rush - A Farewell To Kings
DYEAR=1977
DGENRE=Progressive Rock
TTITLE0=A Farewell To Kings
TTITLE1=Xanadu
TTITLE2=Closer To The Heart
TTITLE3=Cinderella Man
TTITLE4=Madrigal
TTITLE5=Cygnus X-1
EXTD=Line-up/Musicians:\n\n- Geddy Lee - basses, bass pedals, synthesizers, vocals \n- Alex Lifeson - guitars, bass pedals \n- Neil Peart - drums, percussion
EXTT0=
EXTT1=
EXTT2=
EXTT3=
EXTT4=
EXTT5=
PLAYORDER=
